<svg xmlns="http://www.w3.org/2000/svg" viewBox="0 0 155.84 193.39"><defs><style>.cls-1{fill:#117e87;}.cls-2{fill:#004353;}.cls-3{fill:#fff;}</style></defs><title>Recurso 5</title><g id="Capa_2" data-name="Capa 2"><g id="Capa_1-2" data-name="Capa 1"><path class="cls-1" d="M77.92,0S51.54,22.38,0,22.38V139.85c0,38.27,77.92,42.35,77.92,53.54,0-11.19,77.92-15.27,77.92-53.54V22.38C104.29,22.38,77.92,0,77.92,0Z"/><path class="cls-2" d="M77.29,184.79c-4.39-2.6-11.11-4.74-19.63-7.45C35.86,170.41,6,160.92,6,140V29L7.2,29c38-1.32,61.63-14.61,70-20.27l.7-.47.7.47c8.39,5.66,32,19,70,20.27l1.2.05V140c0,20.88-29.86,30.37-51.66,37.3-8.52,2.71-15.24,4.85-19.62,7.45l-.64.37Z"/><g id="school"><path class="cls-3" d="M45.61,89.58V108l32.31,17.53L110.22,108V89.58l-32.3,17.53ZM77.92,42.51,27.16,70.19,77.92,97.88l41.53-22.61v31.84h9.23V70.19Z"/></g><path class="cls-3" d="M84.37,152.38c-3.43,0-7.43-2-10.7-5.29-3.65-3.71-5.63-8.4-5-12l.13-.84.32-.13-1.41.21L84.8,117.46l.31-.11a7.63,7.63,0,0,1,2.61-.46c4.33,0,8.37,3.45,10.38,5.5a31,31,0,0,1,5.47,7.54c1.3,2.61,1.1,4.39.71,5.43l-.12.3L88.47,151.14l-.13,0a6.58,6.58,0,0,1-4,1.2Z"/><path class="cls-2" d="M87.72,118.39c3.86,0,7.67,3.38,9.31,5a29.25,29.25,0,0,1,5.19,7.16c1.13,2.25.89,3.61.66,4.22l-15.22,15h0a5,5,0,0,1-3.27,1c-2.9,0-6.56-1.74-9.63-4.85-3.43-3.47-5.13-7.66-4.63-10.66a10.38,10.38,0,0,1,3.79-.71,11.64,11.64,0,0,1,8.43,3.88c3.21,3.24,4,5.56,3.64,6.56,0,.14-.18.56-1,.69a2.45,2.45,0,0,1-.48,0c-1.91,0-4.94-1.68-7.48-5.1l-2.1,1.57c3.39,4.57,7.12,6.14,9.63,6.14a5.62,5.62,0,0,0,.85-.07,3.64,3.64,0,0,0,3-2.45c.78-2.38-.73-5.66-4.25-9.23a13.62,13.62,0,0,0-12-4.49l-.21,0,13.66-13.47a6.1,6.1,0,0,1,2.09-.37m0-3a9.21,9.21,0,0,0-3.13.55l-.61.23-.46.45L69.86,130.1l-6.44,6.35L67,136c-.19,3.87,1.88,8.44,5.57,12.19s8,5.74,11.77,5.74A8.16,8.16,0,0,0,89,152.56l.25-.08.53-.52L105,137l.47-.46.23-.61c.5-1.32.77-3.54-.77-6.63a32.27,32.27,0,0,0-5.74-7.92c-2.18-2.22-6.57-6-11.45-6Z"/><path class="cls-3" d="M114.13,122.61a20.92,20.92,0,0,0-5.86-9.75A29.12,29.12,0,0,0,99,106.44l-2.12-.85,12.65-12.45A6.32,6.32,0,0,1,114,91.45c3.43,0,7.43,2,10.7,5.3,5.23,5.3,6.7,12,3.36,15.33l-13.35,13.16Z"/><path class="cls-2" d="M114,93c2.9,0,6.57,1.74,9.63,4.85,4.57,4.63,6.08,10.55,3.38,13.21L115.6,122.28a22.33,22.33,0,0,0-6.27-10.47,30.35,30.35,0,0,0-9.81-6.76l11-10.81A4.87,4.87,0,0,1,114,93m0-3a7.81,7.81,0,0,0-5.63,2.16h0l-11,10.8-3.26,3.21,4.24,1.71a27.66,27.66,0,0,1,8.81,6.08,19.67,19.67,0,0,1,5.47,9l1.19,5.26,3.84-3.79,11.43-11.26c3.94-3.89,2.48-11.56-3.34-17.45-3.55-3.6-8-5.75-11.77-5.75Z"/><path class="cls-3" d="M102.84,144.92l1.66-1.57s3.94-3.79,4.38-8.49l-3.14,3.1-2.16-2.09a4.16,4.16,0,0,0,.49-3.39,9.14,9.14,0,0,0-.85-2.38,30.47,30.47,0,0,0-5.39-7.44c-3.13-3.17-6.46-5.07-9.36-5.35l-3.2-.31L96.9,105.54l.76.14A6.33,6.33,0,0,1,99,106a29.2,29.2,0,0,1,9.59,6.56c3.75,3.81,6,8,6.24,11.86a11.65,11.65,0,0,1-.06,2.21c.35.06.74.14,1.15.24,6.79,1.57,10.56,6.34,10.34,13.07l0,.91-7.94,3.86-.1-2.28a17.31,17.31,0,0,0-1.67-6.09c.53,3.44-.17,7.73-4.83,11.47l-.7.57Z"/><path class="cls-2" d="M97.4,107.15a5.56,5.56,0,0,1,1,.28,27.65,27.65,0,0,1,9.07,6.23c3.14,3.18,5.54,7.07,5.81,10.9a9.46,9.46,0,0,1-.35,3.35,22.65,22.65,0,0,1,2.6.46c3.56.82,9.45,3.42,9.18,11.56l-5.07,2.47s-.35-7.51-5.54-11.13a10.31,10.31,0,0,0-1.73-1l0-.05,0,.07a15.53,15.53,0,0,1,1,1.65c1.71,3.18,3.8,9.5-2.7,14.71l-5.17-2.23s4.37-4.13,4.84-9.5a9.84,9.84,0,0,0-.18-3,5.11,5.11,0,0,1-.64.18l-4.87,4.8a5.49,5.49,0,0,0,.86-4.7,10.55,10.55,0,0,0-1-2.76,32.22,32.22,0,0,0-5.67-7.82c-3-3-6.65-5.45-10.29-5.79l8.79-8.67m-1-3.22L95.29,105l-8.78,8.66-4.58,4.51,6.4.61c2.55.25,5.55,2,8.44,4.92a29,29,0,0,1,5.11,7.05,7.79,7.79,0,0,1,.72,2,2.94,2.94,0,0,1-.22,2.21l.1-.12,2.2,2,1.55,1.56a15.78,15.78,0,0,1-2.77,3.82l-3.26,3.13,4.14,1.8,5.17,2.24,1.66.71,1.41-1.13a15.34,15.34,0,0,0,4.13-5l.14,3,4.1-2,5.07-2.47,1.63-.79.06-1.81c.25-7.48-3.91-12.79-11.4-14.56,0-.37,0-.74,0-1.12-.31-4.2-2.67-8.74-6.67-12.8a30.67,30.67,0,0,0-10.12-6.91,8.09,8.09,0,0,0-1.57-.44l-1.52-.27Z"/></g></g></svg>